<?xml version="1.0" encoding="UTF-8" standalone="no"?>
<!-- Created with Inkscape (http://www.inkscape.org/) -->

<svg
   xmlns:dc="http://purl.org/dc/elements/1.1/"
   xmlns:cc="http://creativecommons.org/ns#"
   xmlns:rdf="http://www.w3.org/1999/02/22-rdf-syntax-ns#"
   xmlns:svg="http://www.w3.org/2000/svg"
   xmlns="http://www.w3.org/2000/svg"
   xmlns:sodipodi="http://sodipodi.sourceforge.net/DTD/sodipodi-0.dtd"
   xmlns:inkscape="http://www.inkscape.org/namespaces/inkscape"
   width="16"
   height="16"
   id="svg2822"
   version="1.1"
   inkscape:version="0.47 r22583"
   sodipodi:docname="favicon.svg"
   inkscape:export-filename="/home/louquillio/working/spreadwebm.com/media/images/favicon.png"
   inkscape:export-xdpi="90"
   inkscape:export-ydpi="90"
   sodipodi:version="0.32"
   inkscape:output_extension="org.inkscape.output.svg.inkscape">
  <defs
     id="defs2824">
    <inkscape:perspective
       sodipodi:type="inkscape:persp3d"
       inkscape:vp_x="0 : 16 : 1"
       inkscape:vp_y="0 : 1000 : 0"
       inkscape:vp_z="32 : 16 : 1"
       inkscape:persp3d-origin="16 : 10.666667 : 1"
       id="perspective21" />
  </defs>
  <sodipodi:namedview
     id="base"
     pagecolor="#ffffff"
     bordercolor="#666666"
     borderopacity="1.0"
     inkscape:pageopacity="0"
     inkscape:pageshadow="2"
     inkscape:zoom="16"
     inkscape:cx="5.6887085"
     inkscape:cy="2.9920642"
     inkscape:document-units="px"
     inkscape:current-layer="layer1"
     showgrid="false"
     inkscape:window-width="1523"
     inkscape:window-height="845"
     inkscape:window-x="95"
     inkscape:window-y="117"
     inkscape:window-maximized="0" />
  <metadata
     id="metadata2827">
    <rdf:RDF>
      <cc:Work
         rdf:about="">
        <dc:format>image/svg+xml</dc:format>
        <dc:type
           rdf:resource="http://purl.org/dc/dcmitype/StillImage" />
        <dc:title></dc:title>
      </cc:Work>
    </rdf:RDF>
  </metadata>
  <g
     inkscape:label="Layer 1"
     inkscape:groupmode="layer"
     id="layer1"
     transform="translate(0,-1036.3622)">
    <rect
       style="fill:#333333;fill-opacity:1;stroke:#303030;stroke-width:0.40000001;stroke-miterlimit:4;stroke-opacity:1;stroke-dasharray:none"
       id="rect2819"
       width="32"
       height="32"
       x="-56.050907"
       y="1017.7524"
       inkscape:export-filename="/home/louquillio/working/website/media/images/favicon.png"
       inkscape:export-xdpi="90"
       inkscape:export-ydpi="90" />
    <g
       id="g3602"
       transform="translate(34.5,-1.250002)">
      <path
         transform="matrix(1.5404196,0,0,1.5392799,-213.65159,810.4958)"
         d="m 158.06866,146.81631 -8.43926,4.87241 -8.43926,4.87241 0,-9.74482 0,-9.74481 8.43926,4.87241 8.43926,4.8724 z"
         inkscape:randomized="0"
         inkscape:rounded="0"
         inkscape:flatsided="false"
         sodipodi:arg2="1.0471976"
         sodipodi:arg1="0"
         sodipodi:r2="5.6261725"
         sodipodi:r1="11.252345"
         sodipodi:cy="146.81631"
         sodipodi:cx="146.81631"
         sodipodi:sides="3"
         id="path2937"
         style="fill:#9bc22f;fill-opacity:1;stroke:none"
         sodipodi:type="star" />
      <path
         id="text2820-0"
         d="m 3.84375,1029.581 0,3.375 2.8125,10.4375 4.0625,0 1.09375,-4.7813 c 0.01646,-0.049 0.03779,-0.1413 0.0625,-0.2812 0.02469,-0.1482 0.04603,-0.2467 0.0625,-0.3125 0.04938,-0.2717 0.121633,-0.5852 0.1875,-0.9063 0.05762,-0.2223 0.105169,-0.5768 0.1875,-1.0625 l 0.21875,-1.0937 c 0.08231,-0.4693 0.151204,-0.9206 0.25,-1.4063 0.107008,-0.4939 0.215382,-0.9568 0.28125,-1.3437 l 0.0625,0 c 0.123472,0.5351 0.230168,1.0537 0.3125,1.5312 0.08231,0.4692 0.152882,0.8648 0.21875,1.2188 0.03292,0.1646 0.08383,0.3501 0.125,0.5312 0.04938,0.1729 0.09206,0.3567 0.125,0.5625 0.06585,0.3705 0.121631,0.7102 0.1875,1.0313 l 0.1875,0.875 c 0.01645,0.066 0.03779,0.1643 0.0625,0.3125 0.02468,0.1399 0.04602,0.2318 0.0625,0.2812 l 1.0625,4.8438 2.40625,0 2,-1.1563 2.6875,-9.9375 -3.15625,-1.8437 -1.21875,5.25 c -0.08234,0.3622 -0.152908,0.7364 -0.21875,1.1562 -0.04118,0.1482 -0.07562,0.3747 -0.125,0.6875 -0.04941,0.3128 -0.09209,0.5706 -0.125,0.7188 -0.06587,0.4774 -0.152908,0.9091 -0.21875,1.3125 -0.01648,0.1481 -0.02135,0.3254 -0.0625,0.5312 -0.03294,0.1976 -0.06251,0.3256 -0.0625,0.375 l -0.0625,0 c -1.4e-5,-0.091 -0.05916,-0.4254 -0.125,-0.9687 -0.06587,-0.5928 -0.106872,-0.9948 -0.15625,-1.25 -0.0741,-0.4363 -0.152907,-0.8483 -0.21875,-1.2188 -0.01648,-0.1152 -0.02959,-0.2794 -0.0625,-0.4687 -0.03294,-0.1894 -0.0773,-0.3092 -0.09375,-0.375 l -1.4375,-6.625 -4.15625,0 -1.5,6.625 c -0.024703,0.066 -0.029578,0.2152 -0.0625,0.4375 -0.016471,0.049 -0.059149,0.2528 -0.125,0.6562 -0.032935,0.1729 -0.090399,0.4716 -0.15625,0.875 -0.049399,0.3046 -0.092077,0.6181 -0.125,0.9063 -0.041167,0.1646 -0.092077,0.4108 -0.125,0.7812 -0.032935,0.3375 -0.031256,0.5591 -0.03125,0.625 l -0.09375,0 c -0.01647,-0.107 -0.059148,-0.4567 -0.125,-1 -0.032934,-0.2223 -0.060827,-0.434 -0.09375,-0.6562 -0.032934,-0.2305 -0.060827,-0.4357 -0.09375,-0.625 l -0.21875,-1.375 c -0.065863,-0.3787 -0.1676832,-0.7381 -0.25,-1.125 l -1.375,-6.125 -2.84375,0 z"
         style="font-size:40px;font-style:normal;font-variant:normal;font-weight:bold;font-stretch:normal;fill:#333333;fill-opacity:1;stroke:none;font-family:Droid Sans;-inkscape-font-specification:Droid Sans Bold" />
      <path
         sodipodi:type="star"
         style="fill:none;stroke:#637d1d;stroke-width:0.85871154;stroke-linecap:butt;stroke-linejoin:round;stroke-miterlimit:4;stroke-opacity:1;stroke-dasharray:none"
         id="path3216"
         sodipodi:sides="3"
         sodipodi:cx="146.81631"
         sodipodi:cy="146.81631"
         sodipodi:r1="11.252345"
         sodipodi:r2="5.6261725"
         sodipodi:arg1="0"
         sodipodi:arg2="1.0471976"
         inkscape:flatsided="false"
         inkscape:rounded="0"
         inkscape:randomized="0"
         d="m 158.06866,146.81631 -8.43926,4.87241 -8.43926,4.87241 0,-9.74482 0,-9.74481 8.43926,4.87241 8.43926,4.8724 z"
         transform="matrix(1.5404196,0,0,1.5392799,-213.65159,810.4958)" />
    </g>
    <text
       xml:space="preserve"
       style="font-size:40px;font-style:normal;font-variant:normal;font-weight:bold;font-stretch:normal;fill:#000000;fill-opacity:1;stroke:none;font-family:Arial Rounded MT Bold;-inkscape-font-specification:'Arial Rounded MT Bold, Bold'"
       x="48.125"
       y="13.5"
       id="text2824"
       transform="translate(0,1020.3622)"><tspan
         sodipodi:role="line"
         id="tspan2826"
         x="48.125"
         y="13.5" /></text>
    <text
       xml:space="preserve"
       style="font-size:40px;font-style:normal;font-variant:normal;font-weight:bold;font-stretch:normal;fill:#000000;fill-opacity:1;stroke:none;font-family:Arial Rounded MT Bold;-inkscape-font-specification:'Arial Rounded MT Bold, Bold'"
       x="49"
       y="10.75"
       id="text2830"
       transform="translate(0,1020.3622)"><tspan
         sodipodi:role="line"
         id="tspan2832"
         x="49"
         y="10.75" /></text>
    <g
       id="g3607"
       transform="matrix(0.4915823,0,0,0.4915823,0.11832478,535.0375)">
      <path
         inkscape:export-ydpi="90"
         inkscape:export-xdpi="90"
         inkscape:export-filename="/home/louquillio/Desktop/favicon.png"
         sodipodi:type="star"
         style="fill:#9bc22f;fill-opacity:1;stroke:none"
         id="path3178"
         sodipodi:sides="3"
         sodipodi:cx="146.81631"
         sodipodi:cy="146.81631"
         sodipodi:r1="11.252345"
         sodipodi:r2="5.6261725"
         sodipodi:arg1="0"
         sodipodi:arg2="1.0471976"
         inkscape:flatsided="false"
         inkscape:rounded="0"
         inkscape:randomized="0"
         d="m 158.06866,146.81631 -8.43926,4.87241 -8.43926,4.87241 0,-9.74482 0,-9.74481 8.43926,4.87241 8.43926,4.8724 z"
         transform="matrix(1.5404196,0,0,1.5392799,-213.29314,810.35087)" />
      <path
         inkscape:export-ydpi="90"
         inkscape:export-xdpi="90"
         inkscape:export-filename="/home/louquillio/Desktop/favicon.png"
         id="text3180"
         d="m 4.212553,1030.4971 0,2.0625 c 0.03644,0.1089 0.01914,0.1291 0.0625,0.25 l 2.75,8.0937 c 0.07409,0.214 0.180781,0.5046 0.3125,0.875 0.131711,0.3622 0.26462,0.6658 0.4375,0.9375 0.172871,0.2634 0.401047,0.4851 0.65625,0.625 0.263424,0.1482 0.567046,0.2188 0.9375,0.2188 0.724425,0 1.243116,-0.2265 1.53125,-0.6875 0.288119,-0.4693 0.534276,-1.18 0.78125,-2.0938 l 1.875,-6.5625 1.9375,6.5625 c 0.164631,0.5927 0.29754,1.0983 0.4375,1.4688 0.139934,0.3704 0.368111,0.6823 0.65625,0.9375 0.280326,0.2414 0.684376,0.3307 1.15625,0.3437 l 1.71875,-0.9687 c 0.03642,-0.064 0.09611,-0.1207 0.125,-0.1875 0.131699,-0.3046 0.32375,-0.7855 0.5625,-1.4688 l 2.75,-8.0937 c 0.09748,-0.2673 0.09601,-0.3782 0.15625,-0.5938 l -2.59375,-1.5 c -0.01123,0.026 -0.05271,0.036 -0.0625,0.062 -0.09057,0.2387 -0.195588,0.6129 -0.34375,1.1563 l -2.25,7.5312 -2,-7 c -0.205817,-0.6997 -0.353512,-1.1888 -0.46875,-1.4687 -0.115262,-0.2882 -0.305635,-0.5426 -0.59375,-0.7813 -0.279905,-0.247 -0.685348,-0.375 -1.1875,-0.375 -0.493941,0 -0.868133,0.128 -1.15625,0.375 -0.279903,0.2387 -0.48674,0.5096 -0.59375,0.7813 -0.09879,0.2634 -0.254721,0.736 -0.46875,1.4687 l -2,7 -2.1875,-7.5312 c -0.222273,-0.7656 -0.458681,-1.281 -0.65625,-1.5938 -0.197575,-0.321 -0.565214,-0.5 -1.125,-0.5 -0.419843,0 -0.774375,0.1494 -1.0625,0.4375 -0.0645,0.064 -0.04369,0.1505 -0.09375,0.2188 z"
         style="font-size:25.28926659px;font-style:normal;font-variant:normal;font-weight:bold;font-stretch:normal;text-align:start;line-height:125%;writing-mode:lr-tb;text-anchor:start;fill:#333333;fill-opacity:1;stroke:none;font-family:Arial Rounded MT Bold;-inkscape-font-specification:'Arial Rounded MT Bold, Bold'" />
      <path
         transform="matrix(1.5404196,0,0,1.5392799,-213.29314,810.35087)"
         d="m 158.06866,146.81631 -8.43926,4.87241 -8.43926,4.87241 0,-9.74482 0,-9.74481 8.43926,4.87241 8.43926,4.8724 z"
         inkscape:randomized="0"
         inkscape:rounded="0"
         inkscape:flatsided="false"
         sodipodi:arg2="1.0471976"
         sodipodi:arg1="0"
         sodipodi:r2="5.6261725"
         sodipodi:r1="11.252345"
         sodipodi:cy="146.81631"
         sodipodi:cx="146.81631"
         sodipodi:sides="3"
         id="path3625"
         style="fill:none;stroke:#637d1d;stroke-width:1.00009763;stroke-linejoin:round;stroke-miterlimit:4;stroke-opacity:1;stroke-dasharray:none"
         sodipodi:type="star" />
    </g>
  </g>
</svg>
